<svg width="900" height="1000" viewBox="0 0 900 1000" fill="none" xmlns="http://www.w3.org/2000/svg">
  <rect width="900" height="1000" fill="#000"/>
  <defs>
    <radialGradient id="halo" cx="0" cy="0" r="1" gradientUnits="userSpaceOnUse" gradientTransform="translate(570 245) rotate(116) scale(520 360)">
      <stop stop-color="#00F0EC" stop-opacity="0.28"/>
      <stop offset="1" stop-color="#000" stop-opacity="0"/>
    </radialGradient>
    <filter id="glow" x="-40%" y="-40%" width="180%" height="180%" color-interpolation-filters="sRGB">
      <feGaussianBlur stdDeviation="12" result="blur"/>
      <feMerge><feMergeNode in="blur"/><feMergeNode in="SourceGraphic"/></feMerge>
    </filter>
  </defs>
  <rect width="900" height="1000" fill="url(#halo)"/>
  <path d="M0 840C170 790 330 770 470 782C610 794 744 760 900 710" stroke="#00F0EC" stroke-opacity="0.22" stroke-width="3"/>
  <g transform="translate(245 130)">
    <circle cx="210" cy="120" r="78" fill="#101818"/>
    <path d="M125 128C145 42 270 28 318 102C300 42 248 0 176 24C112 46 92 94 102 142C108 136 116 132 125 128Z" fill="#050808"/>
    <path d="M94 260C164 206 270 208 336 264L388 730H36L94 260Z" fill="#081010"/>
    <path d="M132 276L212 410L298 276" stroke="#00F0EC" stroke-opacity="0.78" stroke-width="18" filter="url(#glow)"/>
    <path d="M98 350L24 528" stroke="#101818" stroke-width="54" stroke-linecap="round"/>
    <path d="M332 350L410 528" stroke="#101818" stroke-width="54" stroke-linecap="round"/>
    <path d="M64 730H360" stroke="#00F0EC" stroke-opacity="0.75" stroke-width="4" filter="url(#glow)"/>
  </g>
  <path d="M86 130H174" stroke="#00F0EC" stroke-width="5" filter="url(#glow)"/>
  <path d="M86 156H252" stroke="#F5F8F8" stroke-opacity="0.28" stroke-width="3"/>
</svg>
