<svg width="900" height="1100" viewBox="0 0 900 1100" fill="none" xmlns="http://www.w3.org/2000/svg">
  <rect width="900" height="1100" fill="#000"/>
  <defs>
    <radialGradient id="spot" cx="0" cy="0" r="1" gradientUnits="userSpaceOnUse" gradientTransform="translate(470 210) rotate(91) scale(560 300)">
      <stop stop-color="#00F0EC" stop-opacity="0.28"/>
      <stop offset="1" stop-color="#000" stop-opacity="0"/>
    </radialGradient>
  </defs>
  <rect width="900" height="1100" fill="url(#spot)"/>
  <g opacity="0.85">
    <path d="M140 780H220L200 840H120L140 780Z" fill="#00F0EC"/>
    <path d="M312 720H392L372 780H292L312 720Z" fill="#00F0EC" opacity="0.78"/>
    <path d="M490 784H570L550 844H470L490 784Z" fill="#00F0EC" opacity="0.62"/>
    <path d="M658 724H738L718 784H638L658 724Z" fill="#00F0EC" opacity="0.48"/>
  </g>
  <g transform="translate(275 170)">
    <circle cx="196" cy="70" r="52" fill="#101818"/>
    <path d="M152 138C202 118 266 130 302 172L260 336C226 350 178 348 142 326L128 184C132 164 140 148 152 138Z" fill="#081010"/>
    <path d="M168 162H238L202 270L168 162Z" fill="#00F0EC"/>
    <path d="M138 190L64 330" stroke="#081010" stroke-width="40" stroke-linecap="round"/>
    <path d="M296 190L382 330" stroke="#081010" stroke-width="40" stroke-linecap="round"/>
    <path d="M154 328L118 510L82 640" stroke="#081010" stroke-width="48" stroke-linecap="round"/>
    <path d="M246 330L294 510L372 640" stroke="#081010" stroke-width="48" stroke-linecap="round"/>
  </g>
  <path d="M0 900C210 840 410 818 610 830C720 836 812 822 900 800" stroke="#00F0EC" stroke-opacity="0.24" stroke-width="3"/>
</svg>
