<svg width="900" height="1100" viewBox="0 0 900 1100" fill="none" xmlns="http://www.w3.org/2000/svg">
  <rect width="900" height="1100" fill="#000"/>
  <defs>
    <radialGradient id="spot" cx="0" cy="0" r="1" gradientUnits="userSpaceOnUse" gradientTransform="translate(590 180) rotate(116) scale(520 340)">
      <stop stop-color="#F5F8F8" stop-opacity="0.55"/>
      <stop offset="0.24" stop-color="#00F0EC" stop-opacity="0.2"/>
      <stop offset="1" stop-color="#000" stop-opacity="0"/>
    </radialGradient>
  </defs>
  <rect width="900" height="1100" fill="url(#spot)"/>
  <path d="M0 805C170 755 335 740 486 750C640 760 758 732 900 690" stroke="#00F0EC" stroke-opacity="0.22" stroke-width="3"/>
  <g transform="translate(235 180)">
    <circle cx="224" cy="74" r="52" fill="#101818"/>
    <path d="M184 142C228 126 284 134 318 168L282 330C250 346 198 342 168 324L148 184C154 164 166 150 184 142Z" fill="#081010"/>
    <path d="M196 162H260L228 260L196 162Z" fill="#00F0EC"/>
    <path d="M156 190L92 330L42 468" stroke="#081010" stroke-width="40" stroke-linecap="round"/>
    <path d="M312 188L390 296L470 342" stroke="#081010" stroke-width="40" stroke-linecap="round"/>
    <path d="M178 328L130 520L82 700" stroke="#081010" stroke-width="48" stroke-linecap="round"/>
    <path d="M268 326L320 520L420 682" stroke="#081010" stroke-width="48" stroke-linecap="round"/>
    <circle cx="510" cy="690" r="62" fill="#EAF0F0"/>
    <path d="M510 632L530 672L574 680L542 710L550 754L510 732L470 754L478 710L446 680L490 672L510 632Z" fill="#050808"/>
  </g>
  <path d="M140 790H760" stroke="#00F0EC" stroke-opacity="0.6" stroke-width="2"/>
</svg>
